<svg id="Layer_2" data-name="Layer 2" xmlns="http://www.w3.org/2000/svg" viewBox="0 0 220 84.58"><defs><style>.cls-1{fill:none;stroke:#000;stroke-width:3px;}.cls-1,.cls-2,.cls-3{stroke-linecap:round;stroke-miterlimit:10;}.cls-2{fill:blue;stroke:blue;}.cls-3{fill:red;stroke:red;}</style></defs><path class="cls-1" d="M16.5,42.5a41.6,41.6,0,0,1,9-13c1.15-1.12,11-10.52,15-8,3.27,2,1.19,10.9,0,16-2.21,9.43-6.71,17.13-7,17s3.34-11,11-21c1.69-2.21,7.74-10.12,10-9,3.63,1.8-4.68,25.8-4,26,.37.11,2-7.25,7-15s12.23-14.15,14-13c1.6,1-.85,6.49-2,10a36.68,36.68,0,0,0-2,10c0,1.43-.11,5.86,2,7,.92.49,2.59.29,10-6,6.79-5.76,8.86-8.57,10-8,.59.29.18,1.57,0,3-.55,4.3-2.93,11.83-1,13,.93.57,3.84-3.06,8-7a32.51,32.51,0,0,1,6-5c4.53-2.79,5.65-2.26,6-2,1.25.91,1.9,4,1,7-1,3.38-3.68,6.63-3,7,.86.46,2.69-5.36,6-10,3.1-4.36,7.66-7.57,9-7,2.37,1-4.86,14.07-2,16a2.33,2.33,0,0,0,2,0c8.3-2.66,16.71-13.8,18-13,.6.37-.9,2.93-1,8-.08,3.86.74,4.75,1,5,2.09,2,6.57.18,7,0a11.66,11.66,0,0,0,7-11c-.07-1.07-.22-3.46-2-5-2.61-2.26-7.37-1.56-10,1-2.21,2.16-3.53,6.24-2,8,3.73,4.3,23.1-3.78,24-2,.16.32-.47.66-1,2-.9,2.27-.83,5.77,1,7s4.36-.17,6-1a14.78,14.78,0,0,0,6-6c1.52-2.53,2.9-4.82,2-7s-3.44-2.85-4-3a7.76,7.76,0,0,0-6,1c-2.16,1.29-4.69,4.12-4,6,.92,2.5,7.24,2.51,11,2,8.39-1.13,14.07-6.17,15-5,.26.33-.19.74-1,3-.88,2.48-1.81,5.19-1,8a3.83,3.83,0,0,0,1,2c1.94,1.74,6,.16,8-1,.84-.49,5.84-3.53,6-9,0-.87.15-5.06-3-7-2.53-1.56-6.25-1.09-8,1-.77.93-1.74,2.86-1,4,2.49,3.85,22-5.18,23-3,.18.39-.41.71-1,2-1.19,2.61-1.34,6.9,1,9,2.67,2.39,7.41.9,10-1,2.34-1.72,4.87-5.21,4-9a7.36,7.36,0,0,0-4-5c-3.36-1.43-6.54.68-7,1s-2.2,1.41-2,2c.26.77,4,7.69,19,4" transform="translate(-15 -19.57)"/><path class="cls-1" d="M156.5,74.5q16.69-15.87,19-14c.6.49.28,1.74,0,3a41.15,41.15,0,0,0-1.12,8.38A69.13,69.13,0,0,1,172.5,87.5c-2.06,7.56-5.84,11.58-8,11-1.7-.46-2.16-6.32-1-11,3.36-13.57,21.71-22.68,26-19,3.95,3.38-4.83,18.63-4,19,.68.31,10.94-28.95,15-28,1.48.35,2.34,4.75,1,8-1.81,4.38-7.18,5.58-7,6,.24.58,9.19-4.92,19-7,1.29-.27,3.74-.73,4-2s-1.37-2.84-3-3c-2.23-.22-4,2.42-5,4-.31.47-3.91,6-2,8,1.33,1.41,4.86.7,7-1,2.54-2,2.66-5.07,3-5,.66.13-2,11-5,25-.47,2.19-1.41,6.65-5,9-.63.41-2.37,1.55-4,1-2.54-.86-3.24-5.33-3-8,.61-6.73,8-10.5,9-11" transform="translate(-15 -19.57)"/><circle class="cls-2" cx="133.5" cy="48.93" r="2"/><circle class="cls-3" cx="77.5" cy="4.93" r="2"/></svg>